HIERARCHY
ROOT Hips
{
	OFFSET -0.001795 -0.223333 0.028219
	CHANNELS 6 Xposition Yposition Zposition Zrotation Yrotation Xrotation 
	JOINT LeftUpLeg
	{
		OFFSET 0.069520 -0.091406 -0.006815
		CHANNELS 3 Zrotation Yrotation Xrotation
		JOINT LeftLeg
		{
			OFFSET 0.034277 -0.375199 -0.004496
			CHANNELS 3 Zrotation Yrotation Xrotation
			JOINT LeftFoot
			{
				OFFSET -0.013596 -0.397961 -0.043693
				CHANNELS 3 Zrotation Yrotation Xrotation
				JOINT LeftToe
				{
					OFFSET 0.026358 -0.055791 0.119288
					CHANNELS 3 Zrotation Yrotation Xrotation
					End Site
					{
						OFFSET 0.000000 0.000000 0.000000
					}
				}
			}
		}
	}
	JOINT RightUpLeg
	{
		OFFSET -0.067670 -0.090522 -0.004320
		CHANNELS 3 Zrotation Yrotation Xrotation
		JOINT RightLeg
		{
			OFFSET -0.038290 -0.382569 -0.008850
			CHANNELS 3 Zrotation Yrotation Xrotation
			JOINT RightFoot
			{
				OFFSET 0.015774 -0.398415 -0.042312
				CHANNELS 3 Zrotation Yrotation Xrotation
				JOINT RightToe
				{
					OFFSET -0.025372 -0.048144 0.123348
					CHANNELS 3 Zrotation Yrotation Xrotation
					End Site
					{
						OFFSET 0.000000 0.000000 0.000000
					}
				}
			}
		}
	}
	JOINT Spine
	{
		OFFSET -0.002533 0.108963 -0.026696
		CHANNELS 3 Zrotation Yrotation Xrotation
		JOINT Spine1
		{
			OFFSET 0.005487 0.135180 0.001092
			CHANNELS 3 Zrotation Yrotation Xrotation
			JOINT Spine2
			{
				OFFSET 0.001457 0.052922 0.025425
				CHANNELS 3 Zrotation Yrotation Xrotation
				JOINT Neck
				{
					OFFSET -0.002778 0.213870 -0.042857
					CHANNELS 3 Zrotation Yrotation Xrotation
					JOINT Head
					{
						OFFSET 0.005152 0.064970 0.051349
						CHANNELS 3 Zrotation Yrotation Xrotation
						End Site
						{
							OFFSET 0.000000 0.000000 0.000000
						}
					}
				}
				JOINT LeftShoulder
				{
					OFFSET 0.078845 0.121749 -0.034090
					CHANNELS 3 Zrotation Yrotation Xrotation
					JOINT LeftArm
					{
						OFFSET 0.090977 0.030469 -0.008868
						CHANNELS 3 Zrotation Yrotation Xrotation
						JOINT LeftForeArm
						{
							OFFSET 0.259612 -0.012772 -0.027456
							CHANNELS 3 Zrotation Yrotation Xrotation
							JOINT LeftHand
							{
								OFFSET 0.249234 0.008986 -0.001171
								CHANNELS 3 Zrotation Yrotation Xrotation
								End Site
								{
									OFFSET 0.000000 0.000000 0.000000
								}
							}
						}
					}
				}
				JOINT RightShoulder
				{
					OFFSET -0.081759 0.118833 -0.038615
					CHANNELS 3 Zrotation Yrotation Xrotation
					JOINT RightArm
					{
						OFFSET -0.096012 0.032551 -0.009143
						CHANNELS 3 Zrotation Yrotation Xrotation
						JOINT RightForeArm
						{
							OFFSET -0.253742 -0.013329 -0.021401
							CHANNELS 3 Zrotation Yrotation Xrotation
							JOINT RightHand
							{
								OFFSET -0.255298 0.007772 -0.005559
								CHANNELS 3 Zrotation Yrotation Xrotation
								End Site
								{
									OFFSET 0.000000 0.000000 0.000000
								}
							}
						}
					}
				}
			}
		}
	}
}
MOTION
Frames: 15
Frame Time: 0.050000
0.000000 0.943139 0.000000 -0.201390 -2.720287 7.296743 6.049678 -0.322729 -4.477542 -0.004357 0.128334 -3.761545 2.366636 7.538949 9.312073 0.000000 0.000000 0.000000 -4.055528 0.539715 -5.403953 -2.376447 0.035342 -3.277458 0.243275 -4.017227 9.717848 0.000000 0.000000 0.000000 5.835255 0.417588 -6.421874 -2.702197 1.236697 -3.975762 -3.954638 5.529371 5.377012 7.798045 -3.688294 -12.845493 0.000000 0.000000 0.000000 -15.943639 -2.264219 -1.367022 -55.800300 -6.912966 -3.403308 -8.409845 -16.479124 1.691887 0.000000 0.000000 0.000000 14.258404 -4.633421 -2.750966 63.075572 7.398792 -1.924185 9.737337 18.880225 2.231089 0.000000 0.000000 0.000000 
0.000218 0.942256 0.000161 -0.239303 -3.370049 8.014888 5.824328 -0.317695 -4.191483 0.466813 0.126622 -4.660035 2.575387 7.771044 9.019022 0.000000 0.000000 0.000000 -3.829560 0.627035 -6.535163 -3.047515 0.119067 -2.647680 0.783430 -3.160982 10.072386 0.000000 0.000000 0.000000 6.778819 0.507591 -7.122037 -3.213490 1.445374 -4.131118 -4.903675 6.295897 5.132735 8.805211 -4.153372 -13.557436 0.000000 0.000000 0.000000 -16.988356 -2.048395 -1.758131 -54.348407 -7.205792 -3.090722 -9.360444 -16.652647 1.825875 0.000000 0.000000 0.000000 14.369918 -5.655463 -3.187920 63.959345 7.332047 -1.878990 10.287489 18.334321 2.253795 0.000000 0.000000 0.000000 
0.000339 0.942230 0.000025 0.083475 -3.071954 7.645579 5.381469 -0.324383 -4.259008 0.649923 0.067064 -3.528250 2.359221 7.246379 8.251466 0.000000 0.000000 0.000000 -3.966258 0.616425 -6.484618 -3.485671 0.153440 -2.658474 0.363539 -4.047370 10.275625 0.000000 0.000000 0.000000 6.543380 0.469944 -6.778636 -2.835565 1.278562 -4.965452 -5.336190 5.921324 5.571292 8.530779 -4.236794 -12.376621 0.000000 0.000000 0.000000 -16.879813 -2.481958 -1.472875 -54.339670 -6.624288 -3.415515 -9.056861 -16.230855 1.747812 0.000000 0.000000 0.000000 15.385356 -4.622785 -2.760369 62.810813 7.065119 -2.159391 10.724180 19.404180 2.475504 0.000000 0.000000 0.000000 
0.000419 0.942238 -0.000102 0.166515 -2.940424 8.048299 5.584841 -0.339201 -4.515827 0.155679 0.118271 -3.831300 2.295158 7.184500 8.428496 0.000000 0.000000 0.000000 -3.936642 0.663029 -7.125895 -3.630592 0.163398 -2.674515 0.244298 -4.413012 10.657077 0.000000 0.000000 0.000000 6.726855 0.485870 -6.979175 -3.205765 1.439025 -4.617343 -5.136170 5.090472 4.637804 8.664423 -4.492743 -11.690505 0.000000 0.000000 0.000000 -17.091587 -1.895643 -1.654644 -54.334360 -7.232198 -3.053494 -8.879924 -16.155941 1.729208 0.000000 0.000000 0.000000 14.413670 -4.473779 -2.762270 63.025489 7.192903 -1.975577 12.074894 19.706655 2.700168 0.000000 0.000000 0.000000 
0.000429 0.942770 -0.000316 0.358095 -2.516461 7.857806 5.219524 -0.350157 -4.597896 0.426683 0.088261 -3.594427 2.072693 6.890009 8.661984 0.000000 0.000000 0.000000 -4.022226 0.639323 -6.864364 -3.839237 0.166420 -2.886995 -0.037709 -4.962181 10.795951 0.000000 0.000000 0.000000 6.532006 0.471286 -6.892364 -2.888980 1.312211 -4.413828 -5.345867 4.847747 4.538803 8.500629 -4.335153 -11.894043 0.000000 0.000000 0.000000 -17.060342 -2.382232 -1.422045 -54.282509 -7.738863 -2.807167 -9.364038 -16.024411 1.778956 0.000000 0.000000 0.000000 14.297582 -4.484390 -2.748707 62.961446 7.379213 -1.859763 12.985198 20.346066 2.960844 0.000000 0.000000 0.000000 
0.000441 0.943164 -0.000437 0.427608 -2.389962 8.003976 5.238864 -0.353177 -4.599946 0.251046 0.105119 -3.670248 2.262745 7.231086 8.651429 0.000000 0.000000 0.000000 -3.903746 0.640138 -6.851261 -4.191767 0.167860 -3.220505 -0.095539 -5.210644 11.221610 0.000000 0.000000 0.000000 6.454553 0.482493 -7.067312 -2.770217 1.262691 -4.424292 -5.339957 4.701886 4.441072 8.832052 -4.606068 -11.653634 0.000000 0.000000 0.000000 -17.331040 -2.286152 -1.495852 -53.833043 -7.765814 -2.746708 -9.689323 -16.373688 1.864051 0.000000 0.000000 0.000000 14.030872 -4.349889 -2.672721 63.319547 7.856824 -1.576819 13.342777 20.287352 3.006866 0.000000 0.000000 0.000000 
0.000468 0.943356 -0.000569 0.488537 -2.108857 7.972733 5.086215 -0.364210 -4.733538 0.369522 0.094004 -3.616666 2.251275 7.347439 9.106943 0.000000 0.000000 0.000000 -3.841899 0.632882 -6.767207 -4.335110 0.173105 -3.309323 -0.075112 -5.126762 11.205598 0.000000 0.000000 0.000000 6.379172 0.482001 -7.113642 -2.722738 1.247638 -4.150989 -5.342102 4.327361 4.200499 8.841876 -4.559142 -11.959570 0.000000 0.000000 0.000000 -17.306023 -2.233853 -1.478985 -53.667017 -7.739939 -2.730038 -10.338936 -16.834550 2.014192 0.000000 0.000000 0.000000 13.850781 -4.060336 -2.552361 63.622085 7.982294 -1.485326 13.435383 20.679266 3.078430 0.000000 0.000000 0.000000 
0.000548 0.943394 -0.000725 0.487280 -1.766450 8.100626 5.086781 -0.382928 -5.031736 0.335263 0.089600 -3.421793 2.249288 7.287166 8.752121 0.000000 0.000000 0.000000 -3.826926 0.634802 -6.809940 -4.349427 0.175745 -3.315154 -0.266580 -5.326795 10.841337 0.000000 0.000000 0.000000 6.285206 0.480150 -7.193963 -2.595904 1.196344 -4.192457 -5.381532 4.245403 4.080684 8.981269 -4.685862 -11.728061 0.000000 0.000000 0.000000 -17.432601 -2.301253 -1.492086 -53.266008 -7.677800 -2.712562 -10.698618 -17.114820 2.096691 0.000000 0.000000 0.000000 13.822186 -3.959769 -2.482740 63.955359 8.241817 -1.317939 13.445560 20.675500 3.084025 0.000000 0.000000 0.000000 
0.000627 0.943418 -0.000876 0.485704 -1.618014 8.057248 5.048164 -0.387960 -5.105608 0.394841 0.081010 -3.317244 2.304618 7.406333 8.788683 0.000000 0.000000 0.000000 -3.851933 0.627015 -6.718764 -4.263916 0.157286 -3.490311 -0.240590 -5.185443 10.639038 0.000000 0.000000 0.000000 6.295164 0.478744 -7.186623 -2.566939 1.185101 -4.294000 -5.291043 4.170067 4.137958 8.949101 -4.654814 -11.791443 0.000000 0.000000 0.000000 -17.384462 -2.426358 -1.416291 -53.248728 -7.801390 -2.664097 -10.852300 -17.087558 2.117153 0.000000 0.000000 0.000000 13.860988 -3.736640 -2.375168 64.032074 8.755886 -1.043418 13.301302 20.465876 3.023973 0.000000 0.000000 0.000000 
0.000701 0.943273 -0.000964 0.526466 -1.480069 7.930096 5.000857 -0.391331 -5.164007 0.338261 0.079334 -3.149312 2.331410 7.409848 8.561565 0.000000 0.000000 0.000000 -3.981154 0.619105 -6.654080 -4.126856 0.142977 -3.567812 -0.199207 -5.049411 10.537367 0.000000 0.000000 0.000000 6.239550 0.477213 -7.178035 -2.523843 1.169075 -4.174572 -5.286054 4.190977 4.052030 9.019311 -4.664769 -11.922344 0.000000 0.000000 0.000000 -17.276022 -2.442566 -1.419837 -53.099625 -8.156529 -2.490726 -11.186494 -16.881751 2.135470 0.000000 0.000000 0.000000 13.944232 -3.487491 -2.241122 63.958139 9.144169 -0.821040 13.151271 20.349987 2.981965 0.000000 0.000000 0.000000 
0.000773 0.943343 -0.001009 0.560330 -1.456656 7.885928 5.008149 -0.385873 -5.056729 0.395117 0.078062 -3.237320 2.281513 7.343015 8.632353 0.000000 0.000000 0.000000 -4.055918 0.617502 -6.651934 -4.148663 0.142080 -3.602490 -0.119914 -4.901741 10.572175 0.000000 0.000000 0.000000 6.264592 0.479116 -7.184196 -2.564643 1.186777 -4.172259 -5.265400 4.246590 4.004383 9.023187 -4.710580 -11.678275 0.000000 0.000000 0.000000 -17.320376 -2.631625 -1.347371 -53.006074 -8.175551 -2.467737 -11.217721 -16.650945 2.108156 0.000000 0.000000 0.000000 13.906329 -3.436798 -2.202574 64.088148 9.485686 -0.618110 13.221300 20.086843 2.951107 0.000000 0.000000 0.000000 
0.000876 0.943268 -0.001054 0.562215 -1.327484 7.893554 5.102604 -0.388449 -5.112260 0.330428 0.082827 -3.222740 2.173057 7.157755 8.605288 0.000000 0.000000 0.000000 -4.134993 0.617600 -6.677112 -4.142090 0.152673 -3.463556 -0.104514 -4.834669 10.519939 0.000000 0.000000 0.000000 6.253246 0.483083 -7.243443 -2.532799 1.174578 -4.101322 -5.162993 4.120255 3.862024 8.802543 -4.566835 -11.654509 0.000000 0.000000 0.000000 -17.360162 -2.552420 -1.383305 -53.089544 -8.348101 -2.380301 -10.913255 -16.213622 2.010337 0.000000 0.000000 0.000000 13.600043 -3.291520 -2.122184 64.216476 9.778888 -0.422684 13.406913 19.796352 2.926205 0.000000 0.000000 0.000000 
0.000977 0.943260 -0.001192 0.509787 -1.264534 7.828695 5.227493 -0.384041 -5.065703 0.231331 0.088886 -3.169709 2.113588 7.015003 8.435404 0.000000 0.000000 0.000000 -4.071625 0.619312 -6.709903 -4.234473 0.177082 -3.235929 0.036427 -4.498438 10.380079 0.000000 0.000000 0.000000 6.263250 0.477296 -7.174175 -2.469088 1.148092 -4.102636 -5.115023 4.168587 3.669247 8.807578 -4.595854 -11.467264 0.000000 0.000000 0.000000 -17.276628 -2.512422 -1.415836 -53.147328 -8.336018 -2.372141 -10.906876 -15.847116 1.959995 0.000000 0.000000 0.000000 13.565403 -3.348131 -2.139643 64.256157 9.827712 -0.364444 13.150487 19.621008 2.853699 0.000000 0.000000 0.000000 
0.001116 0.943314 -0.001534 0.414032 -1.278982 7.891259 5.310820 -0.387347 -5.156932 0.301525 0.081274 -3.117853 2.115205 7.030789 8.492004 0.000000 0.000000 0.000000 -4.101888 0.638925 -7.004588 -4.097232 0.183541 -3.014916 0.106487 -4.333288 10.303797 0.000000 0.000000 0.000000 6.317364 0.477201 -7.168463 -2.442877 1.136126 -4.288200 -4.938961 4.203738 3.796767 8.673397 -4.515455 -11.445460 0.000000 0.000000 0.000000 -17.324482 -2.671042 -1.334740 -53.393912 -8.383014 -2.373658 -10.504336 -15.353578 1.847814 0.000000 0.000000 0.000000 13.405781 -3.183814 -2.047071 64.390068 10.156722 -0.182272 12.858695 19.448081 2.777373 0.000000 0.000000 0.000000 
0.001240 0.943348 -0.001992 0.423359 -1.264007 7.929546 5.346775 -0.398584 -5.416229 0.292406 0.075744 -2.947730 2.176685 7.143259 8.505152 0.000000 0.000000 0.000000 -4.159589 0.652211 -7.220754 -4.130752 0.197307 -2.866621 0.144196 -4.313210 10.460168 0.000000 0.000000 0.000000 6.315166 0.475429 -7.161240 -2.408957 1.121586 -4.358372 -4.929760 4.199404 3.835777 8.688713 -4.503791 -11.561374 0.000000 0.000000 0.000000 -17.132416 -2.670286 -1.307406 -53.568435 -8.348221 -2.408250 -10.270652 -15.203114 1.799757 0.000000 0.000000 0.000000 13.303836 -3.084740 -1.990747 64.461944 10.319207 -0.086738 12.380354 19.343056 2.682642 0.000000 0.000000 0.000000 
